<svg width="534" height="92" viewBox="0 0 534 92" fill="none" xmlns="http://www.w3.org/2000/svg">
<path d="M41.6048 67.9111V21.3657H74.0593V30.502H52.8548V40.0475H72.4002V49.2066H52.8548V58.7748H74.0593V67.9111H41.6048ZM103.446 40.3657V48.9111H81.9002V40.3657H103.446ZM153.542 38.2293H142.179C142.027 37.0626 141.717 36.0096 141.247 35.0702C140.777 34.1308 140.156 33.3278 139.383 32.6611C138.61 31.9945 137.694 31.4869 136.633 31.1384C135.588 30.7748 134.429 30.5929 133.156 30.5929C130.898 30.5929 128.951 31.146 127.315 32.252C125.694 33.3581 124.444 34.9566 123.565 37.0475C122.701 39.1384 122.27 41.6687 122.27 44.6384C122.27 47.7293 122.709 50.3202 123.588 52.4111C124.482 54.4869 125.732 56.0551 127.338 57.1157C128.959 58.1611 130.876 58.6839 133.088 58.6839C134.33 58.6839 135.459 58.5248 136.474 58.2066C137.504 57.8884 138.406 57.4263 139.179 56.8202C139.967 56.199 140.61 55.449 141.11 54.5702C141.626 53.6763 141.982 52.6687 142.179 51.5475L153.542 51.6157C153.345 53.6763 152.747 55.7066 151.747 57.7066C150.762 59.7066 149.406 61.5323 147.679 63.1839C145.951 64.8202 143.845 66.1233 141.36 67.093C138.891 68.0626 136.057 68.5475 132.86 68.5475C128.648 68.5475 124.876 67.6233 121.542 65.7748C118.224 63.9111 115.603 61.199 113.679 57.6384C111.754 54.0778 110.792 49.7445 110.792 44.6384C110.792 39.5172 111.77 35.1763 113.724 31.6157C115.679 28.0551 118.323 25.3505 121.656 23.502C124.989 21.6536 128.724 20.7293 132.86 20.7293C135.679 20.7293 138.285 21.1233 140.679 21.9111C143.073 22.6839 145.179 23.8202 146.997 25.3202C148.815 26.8051 150.292 28.6308 151.429 30.7975C152.565 32.9642 153.27 35.4414 153.542 38.2293ZM203.912 44.6384C203.912 49.7596 202.927 54.1005 200.957 57.6611C198.987 61.2217 196.321 63.9263 192.957 65.7748C189.609 67.6233 185.851 68.5475 181.684 68.5475C177.502 68.5475 173.737 67.6157 170.389 65.752C167.04 63.8884 164.381 61.1839 162.412 57.6384C160.457 54.0778 159.48 49.7445 159.48 44.6384C159.48 39.5172 160.457 35.1763 162.412 31.6157C164.381 28.0551 167.04 25.3505 170.389 23.502C173.737 21.6536 177.502 20.7293 181.684 20.7293C185.851 20.7293 189.609 21.6536 192.957 23.502C196.321 25.3505 198.987 28.0551 200.957 31.6157C202.927 35.1763 203.912 39.5172 203.912 44.6384ZM192.412 44.6384C192.412 41.6081 191.98 39.0475 191.116 36.9566C190.268 34.8657 189.04 33.2823 187.434 32.2066C185.843 31.1308 183.927 30.5929 181.684 30.5929C179.457 30.5929 177.54 31.1308 175.934 32.2066C174.328 33.2823 173.093 34.8657 172.23 36.9566C171.381 39.0475 170.957 41.6081 170.957 44.6384C170.957 47.6687 171.381 50.2293 172.23 52.3202C173.093 54.4111 174.328 55.9945 175.934 57.0702C177.54 58.146 179.457 58.6839 181.684 58.6839C183.927 58.6839 185.843 58.146 187.434 57.0702C189.04 55.9945 190.268 54.4111 191.116 52.3202C191.98 50.2293 192.412 47.6687 192.412 44.6384ZM210.48 21.3657H224.412L236.23 50.1839H236.775L248.593 21.3657H262.525V67.9111H251.571V39.3202H251.184L240.002 67.6157H233.002L221.821 39.1611H221.434V67.9111H210.48V21.3657ZM269.542 21.3657H283.474L295.292 50.1839H295.838L307.656 21.3657H321.588V67.9111H310.633V39.3202H310.247L299.065 67.6157H292.065L280.883 39.1611H280.497V67.9111H269.542V21.3657ZM328.605 67.9111V21.3657H361.059V30.502H339.855V40.0475H359.4V49.2066H339.855V58.7748H361.059V67.9111H328.605ZM368.105 67.9111V21.3657H387.332C390.817 21.3657 393.824 21.9945 396.355 23.252C398.9 24.4945 400.862 26.2823 402.241 28.6157C403.62 30.9339 404.309 33.6839 404.309 36.8657C404.309 40.093 403.605 42.8354 402.196 45.093C400.787 47.3354 398.787 49.0475 396.196 50.2293C393.605 51.396 390.537 51.9793 386.991 51.9793H374.832V43.1157H384.9C386.597 43.1157 388.014 42.896 389.15 42.4566C390.302 42.002 391.173 41.3202 391.764 40.4111C392.355 39.4869 392.65 38.3051 392.65 36.8657C392.65 35.4263 392.355 34.2369 391.764 33.2975C391.173 32.343 390.302 31.6308 389.15 31.1611C387.999 30.6763 386.582 30.4339 384.9 30.4339H379.355V67.9111H368.105ZM394.309 46.6384L405.9 67.9111H393.627L382.264 46.6384H394.309ZM452.73 38.2293H441.366C441.215 37.0626 440.904 36.0096 440.434 35.0702C439.965 34.1308 439.343 33.3278 438.571 32.6611C437.798 31.9945 436.881 31.4869 435.821 31.1384C434.775 30.7748 433.616 30.5929 432.343 30.5929C430.086 30.5929 428.139 31.146 426.502 32.252C424.881 33.3581 423.631 34.9566 422.752 37.0475C421.889 39.1384 421.457 41.6687 421.457 44.6384C421.457 47.7293 421.896 50.3202 422.775 52.4111C423.669 54.4869 424.919 56.0551 426.525 57.1157C428.146 58.1611 430.063 58.6839 432.275 58.6839C433.518 58.6839 434.646 58.5248 435.662 58.2066C436.692 57.8884 437.593 57.4263 438.366 56.8202C439.154 56.199 439.798 55.449 440.298 54.5702C440.813 53.6763 441.169 52.6687 441.366 51.5475L452.73 51.6157C452.533 53.6763 451.934 55.7066 450.934 57.7066C449.949 59.7066 448.593 61.5323 446.866 63.1839C445.139 64.8202 443.033 66.1233 440.548 67.093C438.078 68.0626 435.245 68.5475 432.048 68.5475C427.836 68.5475 424.063 67.6233 420.73 65.7748C417.412 63.9111 414.79 61.199 412.866 57.6384C410.942 54.0778 409.98 49.7445 409.98 44.6384C409.98 39.5172 410.957 35.1763 412.912 31.6157C414.866 28.0551 417.51 25.3505 420.843 23.502C424.177 21.6536 427.912 20.7293 432.048 20.7293C434.866 20.7293 437.472 21.1233 439.866 21.9111C442.26 22.6839 444.366 23.8202 446.184 25.3202C448.002 26.8051 449.48 28.6308 450.616 30.7975C451.752 32.9642 452.457 35.4414 452.73 38.2293ZM459.167 67.9111V21.3657H491.622V30.502H470.417V40.0475H489.963V49.2066H470.417V58.7748H491.622V67.9111H459.167Z" fill="black"/>
</svg>
